<?xml version="1.0" encoding="UTF-8" standalone="no"?>
<!-- Created with Inkscape (http://www.inkscape.org/) -->

<svg
   xmlns:dc="http://purl.org/dc/elements/1.1/"
   xmlns:cc="http://creativecommons.org/ns#"
   xmlns:rdf="http://www.w3.org/1999/02/22-rdf-syntax-ns#"
   xmlns:svg="http://www.w3.org/2000/svg"
   xmlns="http://www.w3.org/2000/svg"
   xmlns:sodipodi="http://sodipodi.sourceforge.net/DTD/sodipodi-0.dtd"
   xmlns:inkscape="http://www.inkscape.org/namespaces/inkscape"
   version="1.1"
   id="svg25780"
   xml:space="preserve"
   width="800"
   height="800"
   viewBox="0 0 800 800"
   sodipodi:docname="heart-flames-publicdomainvectors.org.svg"
   inkscape:version="0.92.4 (5da689c313, 2019-01-14)"><metadata
     id="metadata25786"><rdf:RDF><cc:Work
         rdf:about=""><dc:format>image/svg+xml</dc:format><dc:type
           rdf:resource="http://purl.org/dc/dcmitype/StillImage" /><dc:title></dc:title></cc:Work></rdf:RDF></metadata><defs
     id="defs25784"><clipPath
       clipPathUnits="userSpaceOnUse"
       id="clipPath25796"><path
         d="M 0,600 H 600 V 0 H 0 Z"
         id="path25794"
         inkscape:connector-curvature="0" /></clipPath></defs><sodipodi:namedview
     pagecolor="#ffffff"
     bordercolor="#666666"
     borderopacity="1"
     objecttolerance="10"
     gridtolerance="10"
     guidetolerance="10"
     inkscape:pageopacity="0"
     inkscape:pageshadow="2"
     inkscape:window-width="797"
     inkscape:window-height="480"
     id="namedview25782"
     showgrid="false"
     inkscape:zoom="0.295"
     inkscape:cx="400"
     inkscape:cy="400"
     inkscape:window-x="0"
     inkscape:window-y="0"
     inkscape:window-maximized="0"
     inkscape:current-layer="g25788" /><g
     id="g25788"
     inkscape:groupmode="layer"
     inkscape:label="heart-flames-publicdomainvectors.org"
     transform="matrix(1.3333333,0,0,-1.3333333,0,800)"><g
       id="g25790"><g
         id="g25792"
         clip-path="url(#clipPath25796)"><path
           d="M 571.487,393.875 C 537.771,221.641 302.913,125.301 302.913,125.301 c 0,0 -233.593,89.942 -268.577,268.574 -28.507,145.565 217.618,199.415 268.577,13.129 56.79,210.027 297.071,132.438 268.574,-13.129"
           style="fill:#000000;fill-opacity:1;fill-rule:nonzero;stroke:none"
           id="path25798"
           inkscape:connector-curvature="0" /><path
           d="m 559.813,376.505 c -1.239,-0.207 -2.653,-0.244 -4.117,-0.642 -1.476,-0.355 -3.07,-0.736 -4.776,-1.146 -1.7,-0.436 -3.549,-0.788 -5.433,-1.368 -1.863,-0.658 -3.82,-1.348 -5.863,-2.066 -4.182,-1.255 -8.305,-3.547 -12.865,-5.595 -2.219,-1.134 -4.376,-2.521 -6.655,-3.824 -1.132,-0.666 -2.277,-1.338 -3.433,-2.021 -1.091,-0.772 -2.193,-1.554 -3.305,-2.342 -2.193,-1.615 -4.553,-3.112 -6.714,-4.904 -2.156,-1.804 -4.338,-3.63 -6.537,-5.473 -2.193,-1.854 -4.172,-3.963 -6.289,-5.953 l -3.125,-3.056 -2.932,-3.235 c -1.92,-2.189 -3.998,-4.265 -5.789,-6.547 -1.818,-2.264 -3.63,-4.522 -5.427,-6.759 -1.798,-2.245 -3.369,-4.612 -5.038,-6.88 -1.655,-2.279 -3.285,-4.536 -4.726,-6.852 -1.485,-2.294 -2.947,-4.549 -4.378,-6.757 -1.39,-2.231 -2.65,-4.47 -3.932,-6.622 -2.609,-4.285 -4.784,-8.481 -6.853,-12.332 -2.12,-3.814 -3.796,-7.496 -5.394,-10.692 -0.781,-1.607 -1.511,-3.109 -2.186,-4.5 -0.621,-1.376 -1.191,-2.644 -1.707,-3.785 -2.061,-4.573 -3.238,-7.187 -3.238,-7.187 l 0.076,-0.029 c -2.644,-4.86 -5.387,-9.731 -8.244,-14.534 1.652,16.952 0.758,34.231 -1.228,51.37 0.33,2.496 0.645,5.083 1.07,7.769 0.687,3.131 1.23,6.445 2.097,9.799 0.464,1.67 0.937,3.367 1.417,5.092 0.248,0.859 0.463,1.738 0.741,2.603 0.303,0.856 0.609,1.719 0.915,2.589 0.615,1.741 1.237,3.507 1.866,5.295 0.744,1.746 1.496,3.515 2.256,5.299 0.383,0.896 0.767,1.794 1.153,2.697 0.44,0.881 0.884,1.766 1.329,2.655 0.903,1.77 1.759,3.592 2.724,5.376 3.893,7.133 8.498,14.225 13.553,21.219 5.086,6.984 10.688,13.821 16.375,20.631 5.697,6.804 11.542,13.556 17.1,20.403 5.541,6.858 10.918,13.718 15.527,20.803 4.588,7.084 8.735,14.157 11.788,21.291 0.863,1.733 1.489,3.544 2.173,5.297 0.643,1.766 1.402,3.46 1.919,5.207 0.998,3.501 2.21,6.808 2.816,10.134 0.361,1.646 0.714,3.255 1.06,4.83 0.341,1.572 0.473,3.147 0.71,4.661 0.209,1.516 0.415,2.994 0.615,4.431 0.186,1.437 0.198,2.851 0.303,4.211 0.082,1.361 0.161,2.678 0.237,3.949 0.039,0.634 0.076,1.258 0.114,1.87 -0.009,0.611 -0.018,1.213 -0.027,1.803 -0.037,2.354 -0.071,4.517 -0.102,6.469 -0.099,3.901 -0.55,6.947 -0.68,9.029 -0.186,2.078 -0.284,3.188 -0.284,3.188 0,0 0.05,-1.113 0.142,-3.2 0.035,-2.086 0.35,-5.137 0.273,-9.026 -0.056,-1.943 -0.119,-4.094 -0.186,-6.435 -0.018,-0.584 -0.035,-1.18 -0.053,-1.788 -0.065,-0.607 -0.129,-1.223 -0.196,-1.851 -0.132,-1.255 -0.268,-2.556 -0.411,-3.9 -0.163,-1.341 -0.236,-2.733 -0.484,-4.145 -0.261,-1.409 -0.53,-2.859 -0.805,-4.347 -0.302,-1.481 -0.496,-3.021 -0.902,-4.557 -0.41,-1.53 -0.829,-3.097 -1.255,-4.696 -0.736,-3.233 -2.077,-6.429 -3.202,-9.802 -0.579,-1.682 -1.4,-3.307 -2.104,-5.004 -0.744,-1.679 -1.427,-3.414 -2.351,-5.071 -3.282,-6.817 -7.638,-13.534 -12.425,-20.245 -4.806,-6.715 -10.389,-13.217 -16.161,-19.74 -5.79,-6.516 -11.904,-12.971 -17.945,-19.561 -6.029,-6.597 -12.031,-13.283 -17.591,-20.237 -5.533,-6.974 -10.67,-14.15 -15.115,-21.495 -1.104,-1.838 -2.099,-3.724 -3.141,-5.56 -0.515,-0.924 -1.026,-1.842 -1.534,-2.756 -0.456,-0.943 -0.91,-1.881 -1.359,-2.816 -0.898,-1.874 -1.785,-3.727 -2.661,-5.556 -0.763,-1.883 -1.515,-3.748 -2.257,-5.583 -0.372,-0.919 -0.739,-1.833 -1.104,-2.739 -0.012,-0.026 -0.018,-0.054 -0.029,-0.077 -6.843,41.491 -15.547,80.536 -4.892,110.172 1.157,2.667 2.423,5.33 3.846,7.954 2.713,4.946 5.824,9.801 9.199,14.505 6.773,9.401 14.546,18.204 21.21,27.033 3.325,4.417 6.36,8.846 8.943,13.227 2.503,4.431 4.614,8.764 6.13,12.937 0.801,2.065 1.34,4.129 1.968,6.041 0.449,1.969 0.92,3.822 1.278,5.578 0.275,1.774 0.533,3.432 0.77,4.965 0.161,1.543 0.245,2.965 0.353,4.246 0.28,2.555 0.106,4.583 0.169,5.952 0.007,1.374 0.012,2.106 0.012,2.106 0,0 -0.039,-0.732 -0.107,-2.104 -0.126,-1.367 -0.043,-3.389 -0.436,-5.923 -0.168,-1.268 -0.316,-2.676 -0.542,-4.196 -0.305,-1.509 -0.635,-3.138 -0.988,-4.882 -0.432,-1.72 -0.98,-3.53 -1.507,-5.444 -0.708,-1.859 -1.327,-3.858 -2.207,-5.852 -1.67,-4.024 -3.935,-8.173 -6.576,-12.395 -2.725,-4.175 -5.895,-8.381 -9.372,-12.587 -6.96,-8.406 -15.122,-16.839 -22.49,-26.138 -3.673,-4.654 -7.122,-9.527 -10.188,-14.566 -3.046,-5.054 -5.574,-10.318 -7.744,-15.538 -1.978,-5.287 -3.719,-10.498 -4.786,-15.574 -0.284,-1.266 -0.564,-2.514 -0.841,-3.744 -0.204,-1.242 -0.404,-2.465 -0.601,-3.667 -0.193,-1.204 -0.383,-2.388 -0.569,-3.551 -0.12,-1.17 -0.24,-2.315 -0.356,-3.439 -0.57,-4.495 -0.583,-8.625 -0.777,-12.295 0.053,-3.678 0.022,-6.962 0.145,-9.548 0.208,-3.426 0.354,-5.842 0.428,-7.082 -0.652,-38.69 4.274,-80.085 0.315,-93.651 -12.049,-41.291 -73.283,-63.437 -28.98,24.99 25.142,36.456 -22.299,95.206 -10.764,159.075 0.095,0.468 0.186,0.913 0.281,1.387 0.431,1.75 0.871,3.536 1.319,5.355 0.405,1.835 1.02,3.63 1.555,5.481 0.543,1.849 1.092,3.723 1.802,5.552 0.69,1.838 1.302,3.729 2.066,5.564 0.792,1.825 1.59,3.654 2.385,5.487 0.793,1.837 1.805,3.56 2.694,5.344 l 1.376,2.652 1.553,2.527 c 1.048,1.667 2.019,3.375 3.109,4.975 1.137,1.568 2.261,3.117 3.365,4.643 1.061,1.564 2.282,2.958 3.465,4.34 1.179,1.384 2.332,2.743 3.454,4.063 2.446,2.465 4.759,4.795 6.896,6.946 2.299,1.987 4.409,3.809 6.277,5.422 1.855,1.642 3.681,2.804 5.08,3.902 2.857,2.122 4.491,3.335 4.491,3.335 0,0 -1.709,-1.104 -4.701,-3.035 -1.47,-1.004 -3.382,-2.056 -5.348,-3.578 -1.985,-1.502 -4.227,-3.196 -6.672,-5.043 -2.303,-2.034 -4.795,-4.239 -7.435,-6.57 -1.227,-1.267 -2.488,-2.568 -3.778,-3.897 -1.296,-1.329 -2.637,-2.674 -3.825,-4.197 -1.232,-1.487 -2.486,-3.001 -3.755,-4.531 -1.226,-1.568 -2.337,-3.249 -3.529,-4.897 l -1.77,-2.502 -1.596,-2.636 c -1.038,-1.777 -2.201,-3.503 -3.145,-5.344 -0.95,-1.844 -1.9,-3.686 -2.843,-5.521 -0.916,-1.851 -1.68,-3.761 -2.518,-5.624 -0.861,-1.856 -1.557,-3.754 -2.246,-5.633 -0.444,-1.227 -0.9,-2.435 -1.33,-3.644 -8.202,-16.496 -16.348,-50.05 -5.584,-114.639 8.682,-52.082 -54.252,-40.282 -48.246,-9.568 10.081,51.547 25.387,100.655 0.398,144.074 0,0 15.965,-89.751 -28.974,-100.746 -24.987,-6.115 -51.28,121.764 -45.987,154.795 -11.153,-30.899 -4.506,-81.801 5.317,-125.822 0.644,-2.885 -1.968,-8.007 -9.57,-3.365 -12.953,7.908 -39.229,29.732 -49.549,59.722 -0.531,1.986 -1.007,3.98 -1.391,5.976 -0.595,3.408 -1.019,6.806 -1.12,10.117 -0.076,1.653 -0.106,3.283 -0.026,4.881 0.006,1.601 0.131,3.16 0.285,4.678 0.099,1.526 0.326,2.992 0.551,4.414 0.186,1.431 0.453,2.796 0.757,4.099 0.498,2.636 1.256,4.977 1.828,7.085 0.708,2.063 1.318,3.871 1.873,5.342 1.212,2.903 1.903,4.562 1.903,4.562 0,0 -0.813,-1.607 -2.237,-4.418 -0.666,-1.431 -1.412,-3.198 -2.279,-5.224 -0.732,-2.076 -1.674,-4.391 -2.376,-7.022 -0.407,-1.3 -0.781,-2.67 -1.078,-4.111 -0.338,-1.432 -0.682,-2.917 -0.899,-4.47 -0.272,-1.544 -0.517,-3.139 -0.648,-4.783 -0.204,-1.641 -0.296,-3.324 -0.345,-5.043 -0.149,-3.435 0.028,-6.999 0.386,-10.605 0.419,-3.599 1.043,-7.242 1.952,-10.823 1.801,-7.16 4.538,-14.091 7.737,-20.242 0.676,-1.327 1.382,-2.604 2.092,-3.859 1.686,-3.236 3.548,-6.486 5.534,-9.726 -13.533,6.801 -30.087,13.56 -46.378,20.703 -10.093,4.481 -20.098,9.149 -29.006,14.332 -4.442,2.607 -8.611,5.327 -12.336,8.206 -3.654,2.94 -7.025,5.896 -9.523,9.141 -1.394,1.52 -2.308,3.261 -3.371,4.798 -0.456,0.811 -0.804,1.652 -1.197,2.442 -0.374,0.798 -0.797,1.558 -0.985,2.372 -0.454,1.596 -1.046,3.065 -1.13,4.516 -0.18,1.432 -0.45,2.75 -0.321,3.955 0.05,1.201 0.033,2.285 0.129,3.216 0.175,0.923 0.323,1.706 0.444,2.342 0.243,1.275 0.372,1.957 0.372,1.957 0,0 -0.162,-0.673 -0.465,-1.936 -0.152,-0.634 -0.339,-1.414 -0.56,-2.334 -0.14,-0.931 -0.176,-2.022 -0.286,-3.237 -0.187,-1.221 0.019,-2.564 0.134,-4.037 0.019,-1.494 0.544,-3.017 0.937,-4.684 0.159,-0.851 0.55,-1.647 0.894,-2.489 0.364,-0.832 0.686,-1.719 1.117,-2.579 1.008,-1.628 1.884,-3.486 3.232,-5.111 2.424,-3.475 5.729,-6.665 9.33,-9.858 3.668,-3.128 7.786,-6.106 12.173,-8.969 8.797,-5.703 18.679,-10.899 28.608,-15.891 19.896,-9.875 40.054,-19.143 53.747,-27.959 1.139,-0.697 2.199,-1.402 3.229,-2.107 18.847,-26.406 43.145,-50.633 51.301,-62.453 48.91,-70.883 10.277,-127.24 -3.19,-125.823 -13.467,1.417 6.756,15.986 5.156,68.434 -1.376,44.998 -51.284,92.564 -89.256,104.305 -0.221,0.091 -0.432,0.18 -0.656,0.273 -2.025,0.754 -4.135,1.537 -6.32,2.348 -2.209,0.711 -4.495,1.446 -6.844,2.201 -2.37,0.657 -4.804,1.332 -7.293,2.022 -2.506,0.592 -5.051,1.277 -7.664,1.825 -5.217,1.136 -10.623,2.2 -16.13,3.081 -5.503,0.927 -11.101,1.714 -16.691,2.481 -11.176,1.527 -22.349,2.818 -32.659,4.748 -5.145,0.975 -10.1,2.061 -14.629,3.576 -4.512,1.513 -8.731,3.238 -12.104,5.645 -3.396,2.366 -5.929,5.259 -7.571,8.211 -1.428,3.045 -2.199,5.946 -2.379,8.385 -0.072,1.22 -0.199,2.313 -0.2,3.266 0.061,0.952 0.112,1.763 0.152,2.419 0.082,1.317 0.128,2.019 0.128,2.019 0,0 -0.077,-0.699 -0.223,-2.011 -0.072,-0.657 -0.162,-1.468 -0.267,-2.422 -0.044,-0.957 0.031,-2.061 0.045,-3.3 0.068,-2.479 0.704,-5.472 2.042,-8.705 1.549,-3.138 4.062,-6.301 7.49,-8.937 3.408,-2.677 7.673,-4.657 12.231,-6.432 4.577,-1.773 9.56,-3.11 14.726,-4.348 10.35,-2.445 21.495,-4.269 32.549,-6.314 5.524,-1.026 11.037,-2.068 16.417,-3.238 5.393,-1.126 10.643,-2.423 15.683,-3.77 2.526,-0.654 4.962,-1.44 7.371,-2.128 2.373,-0.78 4.696,-1.541 6.957,-2.286 2.221,-0.832 4.381,-1.642 6.469,-2.426 2.046,-0.869 4.023,-1.712 5.921,-2.521 3.72,-1.756 7.106,-3.397 9.977,-5.073 1.934,-1.005 3.538,-2.041 4.987,-2.98 27.688,-21.41 58.372,-61.133 50.788,-118.298 -2.305,-17.364 -11.168,-23.848 -18.43,4.43 -4.705,18.32 -13.061,34.485 -24.933,46.113 -1.428,1.536 -2.925,3.062 -4.524,4.564 -3.818,3.491 -8.156,6.76 -12.859,9.726 -4.689,2.999 -9.846,5.506 -15.166,7.72 -5.323,2.223 -10.9,3.976 -16.533,5.353 -5.624,1.426 -11.333,2.383 -16.96,3.043 -5.623,0.724 -11.19,0.922 -16.551,1.058 -5.368,0.021 -10.544,-0.136 -15.429,-0.52 -4.888,-0.368 -9.482,-0.915 -13.7,-1.523 -2.105,-0.333 -4.119,-0.655 -6.039,-0.958 -1.904,-0.365 -3.711,-0.712 -5.409,-1.039 -3.39,-0.665 -6.314,-1.401 -8.733,-1.927 -4.792,-1.249 -7.531,-1.963 -7.531,-1.963 0,0 2.779,0.519 7.641,1.427 2.449,0.353 5.403,0.879 8.816,1.304 1.706,0.202 3.521,0.422 5.433,0.65 1.918,0.165 3.937,0.342 6.041,0.525 4.21,0.308 8.775,0.526 13.598,0.547 4.824,0.036 9.901,-0.168 15.125,-0.555 5.213,-0.503 10.592,-1.074 15.957,-2.157 5.371,-1.019 10.767,-2.317 16.003,-4.05 5.246,-1.682 10.367,-3.7 15.163,-6.118 4.791,-2.406 9.362,-5.037 13.409,-8.053 4.061,-2.989 7.72,-6.18 10.856,-9.484 2.985,-3.239 5.548,-6.496 7.623,-9.694 11.353,-23.503 7.53,-52.251 15.941,-82.543 1.714,-6.17 -3.898,-12.227 -8.295,-5.2 -0.487,0.926 -0.97,1.846 -1.476,2.763 -2.713,5.01 -5.78,9.86 -8.951,14.438 -3.145,4.605 -6.566,8.853 -9.909,12.866 -2.676,3.154 -5.349,6.066 -7.99,8.847 -2.08,2.695 -4.416,5.398 -6.792,8.201 -1.352,1.595 -2.883,3.096 -4.344,4.675 -0.74,0.782 -1.486,1.569 -2.234,2.362 -0.799,0.744 -1.601,1.495 -2.408,2.248 -1.642,1.471 -3.173,3.077 -4.934,4.459 -1.742,1.393 -3.492,2.791 -5.24,4.194 -3.701,2.539 -7.349,5.143 -11.312,7.113 -0.968,0.525 -1.93,1.049 -2.89,1.567 -0.975,0.488 -2.001,0.864 -2.988,1.296 -2.009,0.791 -3.917,1.748 -5.918,2.364 -2.002,0.6 -3.971,1.188 -5.898,1.766 -0.951,0.326 -1.926,0.516 -2.896,0.677 -0.964,0.178 -1.916,0.353 -2.854,0.529 -3.729,0.854 -7.343,0.981 -10.645,1.242 -0.825,0.059 -1.634,0.12 -2.424,0.178 -0.792,-0.02 -1.566,-0.042 -2.321,-0.063 -1.506,-0.041 -2.934,-0.079 -4.279,-0.115 -2.686,0.022 -5.002,-0.35 -6.91,-0.581 -3.811,-0.474 -5.988,-0.744 -5.988,-0.744 0,0 2.189,0.136 6.017,0.378 1.912,0.115 4.228,0.348 6.894,0.161 1.33,-0.046 2.745,-0.091 4.236,-0.141 0.744,-0.024 1.508,-0.05 2.288,-0.076 0.776,-0.104 1.568,-0.211 2.378,-0.322 3.235,-0.456 6.755,-0.789 10.343,-1.846 0.902,-0.224 1.817,-0.452 2.742,-0.681 0.93,-0.211 1.864,-0.454 2.768,-0.828 1.83,-0.67 3.697,-1.357 5.597,-2.051 1.889,-0.704 3.679,-1.751 5.556,-2.626 0.924,-0.473 1.881,-0.887 2.789,-1.407 0.891,-0.556 1.784,-1.119 2.682,-1.676 3.671,-2.106 7.018,-4.83 10.397,-7.453 1.592,-1.442 3.185,-2.883 4.769,-4.32 0.381,-0.333 0.725,-0.713 1.087,-1.068 0.164,-0.213 0.319,-0.414 0.488,-0.629 2.053,-2.57 4.269,-5.541 6.631,-8.809 1.209,-1.611 2.412,-3.329 3.621,-5.128 1.205,-1.801 2.53,-3.598 3.733,-5.553 2.498,-3.845 5.001,-7.956 7.403,-12.276 2.356,-4.343 4.709,-8.835 6.704,-13.532 2.029,-4.686 3.871,-9.471 5.39,-14.392 1.555,-4.921 2.835,-9.924 4.264,-15.194 1.422,-5.234 3.154,-10.992 6.082,-16.677 2.882,-5.7 7.017,-10.919 11.244,-14.88 4.232,-3.971 57.232,-55.139 83.185,-71.65 8.43,-5.363 -18.035,38.774 -8.683,35.265 38.787,-14.564 32.671,-36.454 55.59,-27.836 14.571,5.478 44.807,24.531 82.446,61.635 4.894,4.824 9.277,10.58 13.488,16.601 4.354,5.926 8.213,12.374 11.985,18.925 3.588,6.639 7.089,13.403 10.105,20.311 6.553,14.586 11.811,29.383 16.55,43.071 1.144,2.816 2.346,5.926 3.896,9.23 1.736,3.855 3.558,8.068 5.784,12.368 1.091,2.159 2.161,4.414 3.35,6.657 1.232,2.225 2.488,4.497 3.767,6.806 1.238,2.341 2.652,4.618 4.093,6.921 1.454,2.291 2.816,4.698 4.395,6.972 1.58,2.276 3.175,4.57 4.773,6.874 1.577,2.331 3.426,4.444 5.133,6.689 l 2.611,3.323 2.801,3.142 c 1.902,2.055 3.676,4.239 5.663,6.167 1.998,1.925 3.98,3.835 5.938,5.721 1.968,1.88 4.136,3.467 6.152,5.182 1.025,0.841 2.04,1.675 3.047,2.5 1.07,0.733 2.131,1.461 3.181,2.181 2.117,1.411 4.127,2.914 6.205,4.168 4.278,2.279 8.171,4.825 12.164,6.322 1.957,0.849 3.833,1.662 5.617,2.434 1.811,0.699 3.599,1.167 5.246,1.715 1.658,0.524 3.212,1.012 4.648,1.465 1.427,0.498 2.813,0.627 4.028,0.919 4.911,0.993 7.719,1.56 7.719,1.56 0,0 -2.843,-0.371 -7.82,-1.022"
           style="fill:#d83a26;fill-opacity:1;fill-rule:nonzero;stroke:none"
           id="path25800"
           inkscape:connector-curvature="0" /><path
           d="m 322.14,116.162 c -6.13,0 -12.041,3.638 -20.989,9.144 -8.825,5.432 -18.611,14.327 -34.513,20.299 -1.402,0.526 -13.551,2.334 -15.285,-0.4 -1.472,-2.322 12.035,-23.862 12.494,-26.713 -3.166,3.1 -61.919,56.454 -65.269,59.599 -3.858,3.615 -7.222,8.06 -9.476,12.514 -2.557,4.969 -4.135,10.176 -5.464,15.07 l -0.841,3.127 c -1.143,4.264 -2.223,8.293 -3.521,12.399 -0.044,0.144 -0.088,0.286 -0.133,0.43 0.052,-0.094 0.104,-0.188 0.155,-0.284 0.505,-0.92 0.966,-1.797 1.426,-2.673 l 0.15,-0.281 0.168,-0.274 c 3.893,-6.217 8.885,-7.145 11.515,-7.145 3.757,0 7.297,1.821 9.709,4.995 2.938,3.865 3.864,9.149 2.481,14.139 -3.465,12.476 -4.759,24.9 -6.012,36.915 -0.811,7.778 -1.627,15.623 -3.079,23.338 2.129,-4.99 3.944,-10.363 5.415,-16.091 3.077,-11.979 8.026,-25.731 19.085,-25.731 4.875,0 13.443,2.899 16.016,22.301 4.943,37.261 -5.663,68.125 -21.706,91.768 17.573,-18.002 31.053,-40.557 31.724,-62.529 0.808,-26.421 -4.218,-42.702 -7.22,-52.427 -2.393,-7.754 -4.123,-13.356 -0.633,-18.644 2.106,-3.192 5.575,-5.063 10.309,-5.561 0.458,-0.05 0.923,-0.074 1.4,-0.074 8.636,0.003 18.084,8.184 25.275,21.884 6.622,12.618 25.072,58.371 -15.593,117.304 -3.685,5.338 -9.862,12.389 -17.683,21.315 -6.117,6.98 -13.358,15.246 -20.578,24.151 1.324,-0.896 2.59,-1.712 3.789,-2.444 3.384,-2.065 6.687,-3.112 9.816,-3.112 3.937,0 7.56,1.702 9.939,4.672 1.63,2.034 2.598,4.532 2.809,7.095 4.463,-11.54 9.343,-21.054 14.428,-27.017 4.924,-5.775 10.285,-8.704 15.931,-8.704 h 0.005 c 1.264,0 2.531,0.155 3.766,0.456 14.791,3.619 24.086,13.769 29.802,26.545 -1.855,-13.095 -4.672,-26.527 -7.543,-40.205 -1.372,-6.544 -2.756,-13.138 -4.053,-19.774 -1.673,-8.553 0.447,-16.953 5.967,-23.655 6.479,-7.867 17.231,-12.755 28.063,-12.755 h 0.006 c 9.654,0.003 18.16,3.768 23.947,10.602 4.902,5.788 10.096,16.582 7.002,35.144 -2.502,15.013 -3.95,28.247 -4.605,39.893 1.935,-8.714 4.182,-17.068 6.302,-24.962 7.264,-27.029 13.536,-50.372 2.58,-66.261 l -0.335,-0.486 -0.267,-0.531 c -16.233,-32.399 -20.634,-53.795 -13.46,-65.414 3.208,-5.189 8.461,-8.048 14.794,-8.048 h 0.006 c 16.554,0.003 36.84,19.764 43.411,42.277 2.709,9.29 1.978,26.843 1.051,49.067 -0.247,5.932 -0.514,12.333 -0.717,18.981 0.305,-1.788 0.611,-3.578 0.918,-5.375 5.202,-30.342 10.146,-65.613 -2.6,-110.436 8.164,-0.572 16.413,4.974 24.708,13.902 -1.225,-2.961 -2.493,-5.92 -3.814,-8.857 -3.143,-7.196 -6.865,-14.268 -9.774,-19.65 -3.477,-6.035 -7.266,-12.392 -11.412,-18.036 -3.374,-4.82 -7.739,-10.785 -12.603,-15.581 -44.338,-43.705 -64.536,-59.196 -77.184,-59.196"
           style="fill:#f89a1c;fill-opacity:1;fill-rule:nonzero;stroke:none"
           id="path25802"
           inkscape:connector-curvature="0" /><path
           d="m 322.14,124.669 c -3.721,0 -9.088,3.303 -16.517,7.876 -2.251,1.382 -4.697,3.104 -7.288,4.926 -7.226,5.081 -16.218,11.407 -28.707,16.095 -2.299,0.865 -8.095,1.62 -12.405,1.62 -2.631,0 -9.617,0 -13.056,-5.427 -0.239,-0.378 -0.45,-0.758 -0.629,-1.143 -4.888,4.452 -10.266,9.351 -15.974,14.546 -11.251,10.247 -21.88,19.927 -23.164,21.131 -3.153,2.956 -5.889,6.56 -7.707,10.153 -1.333,2.586 -2.375,5.314 -3.257,8.04 6.105,0.265 11.752,3.268 15.603,8.337 4.534,5.963 5.994,14.024 3.904,21.561 -0.915,3.287 -1.672,6.601 -2.315,9.919 2.746,-1.427 16.763,-12.153 20.61,-17.98 2.456,-3.724 7.318,-8.369 16.517,-9.336 0.754,-0.079 1.512,-0.119 2.291,-0.119 12.034,0 23.99,9.638 32.806,26.435 7.185,13.687 27.252,63.227 -16.123,126.087 -3.961,5.742 -14.229,18.153 -10.955,14.312 8.239,-9.661 16.732,-11.689 22.405,-11.689 1.944,0 3.891,0.233 5.788,0.695 5.02,1.229 9.642,3.105 13.852,5.621 -0.631,-3.053 -1.278,-6.141 -1.935,-9.268 -1.392,-6.639 -2.776,-13.245 -4.077,-19.89 -2.168,-11.094 0.584,-21.993 7.749,-30.696 8.052,-9.777 21.321,-15.85 34.63,-15.85 12.206,10e-4 23.013,4.837 30.443,13.61 0.34,0.4 0.682,0.82 1.021,1.258 -0.71,-2.608 -1.766,-4.989 -3.234,-7.119 l -0.672,-0.973 -0.53,-1.054 c -17.911,-35.751 -22.07,-59.165 -13.095,-73.701 4.745,-7.681 12.774,-12.086 22.031,-12.086 13,0.004 27.356,9.085 38.013,22.503 -1.087,-5.548 -2.448,-11.257 -4.125,-17.158 l -2.868,-10.082 10.456,-0.727 c 0.583,-0.045 1.166,-0.062 1.749,-0.062 1.233,0 2.47,0.089 3.706,0.267 -0.401,-0.753 -0.795,-1.482 -1.171,-2.18 -3.328,-5.777 -6.946,-11.846 -10.838,-17.144 -3.223,-4.604 -7.352,-10.255 -11.72,-14.559 -28.467,-28.061 -59.19,-56.749 -71.212,-56.749"
           style="fill:#fee60a;fill-opacity:1;fill-rule:nonzero;stroke:none"
           id="path25804"
           inkscape:connector-curvature="0" /><path
           d="m 322.398,137.611 c -2.177,0.931 -6.517,3.601 -10.086,5.797 -1.898,1.165 -4.155,2.755 -6.547,4.436 -7.496,5.273 -17.64,12.406 -31.651,17.668 -4.752,1.787 -12.706,2.433 -16.893,2.433 -5.082,0 -9.522,-0.809 -13.302,-2.419 l -8.461,7.705 c -10.393,9.465 -21.14,19.25 -22.326,20.364 -0.647,0.607 -1.271,1.26 -1.861,1.939 2.982,2.046 6.23,2.027 8.493,5.005 2.2,2.893 1.601,19.825 2.837,23.214 5.138,-12.935 14.979,-20.524 23.82,-21.454 1.205,-0.126 2.424,-0.19 3.626,-0.19 16.934,0 33.008,12.127 44.102,33.261 4.541,8.652 9.505,39.043 8.02,68.486 13.113,-20.559 22.349,-15.991 32.017,-15.991 1.65,0 3.282,0.068 4.894,0.205 -10.575,-27.562 -11.027,-47.216 -1.818,-62.128 7.123,-11.53 19.11,-18.142 32.888,-18.142 5.367,0.003 10.889,1.086 16.368,3.142 l -1.92,-6.75 10.157,-0.709 -0.134,-0.187 c -2.853,-4.077 -6.597,-9.213 -10.225,-12.791 -40.539,-39.959 -56.152,-51.018 -61.998,-52.894"
           style="fill:#ffffff;fill-opacity:1;fill-rule:nonzero;stroke:none"
           id="path25806"
           inkscape:connector-curvature="0" /></g></g></g></svg>